PathFileType	4	(X/Y/Z)	 subject01_standing_10_70.trc
DataRate	CameraRate	NumFrames	NumMarkers	Units	OrigDataRate	OrigDataStartFrame	OrigNumFrames
2000	100	4	49	mm	2000	1	1000
Frame#	Time	s2			lmt5			lcal			ltoe			llmal			lsh1			lsh2			lsh3			lsh4			llfc			lth1			lth2			lth3			lth4			lgt			lic			lasi			lpsi			rpsi			ric			rasi			rgt			rth1			rth2			rth3			rth4			rlfc			rsh1			rsh2			rsh4			rlmal			rcal			rmt5			rtoe			jug			c7			lacr			lua			llel			lfa			ldr			racr			rua			rlel			rfa			rdr			B3			B2			B1			
		X1	Y1	Z1	X2	Y2	Z2	X3	Y3	Z3	X4	Y4	Z4	X5	Y5	Z5	X6	Y6	Z6	X7	Y7	Z7	X8	Y8	Z8	X9	Y9	Z9	X10	Y10	Z10	X11	Y11	Z11	X12	Y12	Z12	X13	Y13	Z13	X14	Y14	Z14	X15	Y15	Z15	X16	Y16	Z16	X17	Y17	Z17	X18	Y18	Z18	X19	Y19	Z19	X20	Y20	Z20	X21	Y21	Z21	X22	Y22	Z22	X23	Y23	Z23	X24	Y24	Z24	X25	Y25	Z25	X26	Y26	Z26	X27	Y27	Z27	X28	Y28	Z28	X29	Y29	Z29	X30	Y30	Z30	X31	Y31	Z31	X32	Y32	Z32	X33	Y33	Z33	X34	Y34	Z34	X35	Y35	Z35	X36	Y36	Z36	X37	Y37	Z37	X38	Y38	Z38	X39	Y39	Z39	X40	Y40	Z40	X41	Y41	Z41	X42	Y42	Z42	X43	Y43	Z43	X44	Y44	Z44	X45	Y45	Z45	X46	Y46	Z46	X47	Y47	Z47	X48	Y48	Z48	X49	Y49	Z49	
1	0.0100	283.952942	1255.997803	-190.477264	162.472458	329.812958	-404.147827	102.943733	516.422791	-332.258636	230.324509	244.219116	-336.599213	155.733948	467.153900	-380.583588	416.206055	650.234253	-391.818054	354.472473	584.158264	-384.735352	268.271515	560.176025	-381.974823	373.976379	559.388733	-362.500305	508.221619	713.057922	-370.140106	404.815491	989.675171	-385.920898	454.292999	917.835205	-390.342621	465.598114	827.299988	-383.770477	489.530121	930.272827	-380.207611	352.036285	1129.154053	-373.792633	385.320679	1211.197021	-356.861237	462.737213	1174.595093	-301.049011	309.143707	1279.412354	-241.058167	315.698303	1287.318237	-138.998657	407.568665	1230.775513	-34.203564	464.578094	1182.108398	-86.630058	369.232117	1139.980835	-10.618741	459.666687	994.097961	-13.126012	521.504150	931.413452	-25.680799	547.835632	846.965820	-39.924313	551.949097	949.586731	-41.869225	580.039673	743.873657	-63.054420	533.994080	639.897095	-43.103004	508.882843	553.964783	-54.258869	530.872742	541.237122	-85.804848	387.477020	368.197052	-59.736988	309.850281	359.457520	-105.133270	473.505249	267.630341	-28.218403	586.568665	246.064560	-91.039375	811.346375	1324.776001	-206.972824	830.927490	1481.347290	-198.511002	860.197632	1471.481201	-324.553894	789.363464	1333.147461	-420.949615	724.457336	1187.536743	-459.095032	791.111816	1070.410278	-424.627258	822.003845	950.425415	-394.975555	864.716064	1448.726807	-67.095573	770.772461	1315.935303	21.868229	685.510742	1170.233521	40.144600	770.541138	1060.307251	11.111796	818.289612	953.152405	-31.533899	25.714441	23.122652	45.855236	19.494743	31.121443	-474.225952	-194.621490	888.190430	-209.945221	
2	0.0200	284.350983	1252.549683	-188.336060	166.719940	341.206940	-404.125366	112.416405	529.408936	-332.347229	232.229614	254.010040	-336.609467	163.494766	478.434265	-380.333130	428.982391	655.093079	-392.269989	367.465637	593.553894	-385.732361	278.861359	568.934570	-382.248199	384.728455	565.634644	-362.829346	521.191956	715.924438	-370.844147	407.339478	988.003662	-385.411591	459.189423	917.889282	-390.673584	473.797943	827.800049	-384.059448	494.258911	931.737061	-381.313049	352.141541	1126.825684	-372.782898	385.152740	1209.001221	-355.353546	462.607819	1172.061646	-299.820343	309.112976	1276.403809	-238.807129	316.359192	1283.705322	-136.670090	408.428986	1226.123901	-32.690006	465.715515	1177.837280	-86.186615	369.284027	1135.221558	-9.304631	456.946411	987.330505	-11.791782	517.180115	922.282288	-24.502033	540.606201	837.681152	-39.251324	547.866760	940.137939	-40.823380	570.702759	733.712524	-61.901768	525.575684	629.183960	-42.203373	501.763885	542.724670	-53.701252	523.925964	530.458069	-85.128868	383.252686	355.450104	-59.553844	306.014832	346.275665	-105.007324	471.254700	256.163086	-27.826603	583.125488	233.879150	-91.102158	811.332092	1323.549438	-207.893326	830.629761	1480.188965	-199.363266	859.220337	1470.521484	-324.979340	787.539917	1332.745972	-421.058197	722.784302	1186.931030	-459.350464	790.171631	1070.172607	-424.883209	821.830383	950.439941	-394.950745	864.829041	1448.008667	-68.585602	771.203369	1315.297485	21.214010	685.485474	1170.059814	40.320232	770.476990	1060.149292	11.097121	818.239746	953.022400	-31.571493	25.725790	23.122686	45.862621	19.521387	31.140507	-474.223816	-194.620682	888.192383	-209.916580	
3	0.0300	284.588470	1248.702393	-186.242126	171.705246	352.459259	-404.068085	121.856735	542.037476	-332.350586	235.001083	263.423004	-336.539398	172.145172	489.750336	-380.954742	441.518066	660.004456	-392.773895	378.584595	599.928528	-386.067902	289.384277	577.471497	-382.556183	395.284943	571.590881	-363.221008	533.895203	718.926514	-371.607788	410.071320	986.089233	-384.870789	464.064362	917.728210	-391.033112	481.829498	828.241028	-384.489655	498.863770	932.610779	-382.252533	352.374756	1123.886719	-371.904968	384.905273	1206.219116	-354.026672	462.475983	1169.093140	-298.657196	309.021240	1272.967407	-236.687988	316.885101	1279.709595	-134.370102	409.270813	1221.104004	-31.127932	466.500275	1173.429443	-85.209366	369.327972	1129.926514	-8.152412	454.203217	980.300964	-10.527101	512.452271	913.472900	-23.535677	533.300537	828.371338	-38.720280	543.670532	930.453857	-39.738728	561.273193	723.468445	-60.577068	516.961853	618.340149	-41.303005	494.455231	531.741760	-52.890942	518.876221	520.917664	-82.952179	378.442902	342.849640	-59.347294	301.449219	333.514130	-104.886513	465.630341	242.673584	-28.033964	578.876831	221.800720	-91.130165	811.316162	1322.169800	-208.734375	830.246338	1478.906738	-200.042191	858.381897	1469.751343	-325.648773	786.072571	1332.003418	-421.561768	721.062927	1186.255615	-459.661011	789.147766	1069.864380	-425.194824	821.581848	950.410828	-394.904388	864.878967	1447.172119	-70.018875	771.477295	1314.682983	20.526224	685.358521	1169.817017	40.650211	770.427612	1059.911133	11.018561	818.197266	952.921143	-31.559752	25.718834	23.107573	45.867859	19.504972	31.115242	-474.227295	-194.601822	888.178589	-209.890472	
4	0.0400	284.751129	1244.460571	-184.259766	177.467499	363.517761	-404.003235	131.175400	553.850525	-332.376892	239.040726	273.434113	-336.610504	180.480240	500.647705	-381.120178	453.810455	664.930054	-393.426392	389.561890	606.272461	-386.530914	299.944672	585.643677	-382.955048	405.763733	577.455688	-363.580048	546.294250	721.866455	-372.518433	413.059174	983.957092	-384.557587	469.122894	917.157043	-391.429352	489.768005	828.258057	-385.028748	503.556763	933.004883	-383.122192	352.818024	1120.365356	-370.874420	384.694977	1202.993774	-352.677002	462.222504	1166.052368	-297.113281	309.064362	1268.813110	-234.497635	316.930969	1274.891235	-132.866318	410.087616	1215.766724	-29.680292	467.171661	1168.671021	-84.095345	369.224396	1124.387329	-6.853585	451.439667	973.235352	-9.319290	507.620941	904.625427	-22.543821	525.809082	818.977905	-37.974865	539.324463	920.628479	-38.787006	551.681580	713.376343	-59.092827	508.000549	607.665344	-40.376022	486.525116	520.848389	-52.239841	511.069366	510.063446	-82.444580	372.988831	330.617767	-59.339714	296.070221	321.283203	-104.719452	460.543427	230.662659	-28.023840	573.788147	209.785858	-91.165558	811.354187	1320.955200	-209.131485	829.700867	1477.687378	-200.818344	857.357910	1468.699585	-326.129059	784.556152	1331.199463	-422.034851	719.262817	1185.618042	-460.118317	788.080627	1069.538574	-425.715820	821.289917	950.402893	-394.914337	864.883667	1446.423950	-71.386688	771.623840	1314.160034	19.897245	685.146606	1169.562988	41.023434	770.347778	1059.753540	11.050638	818.123779	952.790527	-31.485638	25.704353	23.078716	45.870556	19.514145	31.106319	-474.218018	-194.596283	888.165710	-209.865509	
